PathFileType	4	(X/Y/Z)	RBDS04\RBDS04runT45.trc
DataRate	CameraRate	NumFrames	NumMarkers	Units	OrigDataRate	OrigDataStartFrame	OrigNumFrames
150.000000	150.000000	4	33	mm	150.000000	1687	4500
Frame#	Time	L.ASIS			L.Heel.Bottom			L.Heel.Lateral			L.Heel.Top			L.Iliac.Crest			L.MT1			L.MT5			L.PSIS			L.Shank.Bottom.Lateral			L.Shank.Bottom.Medial			L.Shank.Top.Lateral			L.Shank.Top.Medial			L.Thigh.Bottom.Lateral			L.Thigh.Bottom.Medial			L.Thigh.Top.Lateral			L.Thigh.Top.Medial			R.ASIS			R.ASY			R.Heel.Bottom			R.Heel.Lateral			R.Heel.Top			R.Iliac.Crest			R.MT1			R.MT5			R.PSIS			R.Shank.Bottom.Lateral			R.Shank.Bottom.Medial			R.Shank.Top.Lateral			R.Shank.Top.Medial			R.Thigh.Bottom.Lateral			R.Thigh.Bottom.Medial			R.Thigh.Top.Lateral			R.Thigh.Top.Medial			
		X1	Y1	Z1	X2	Y2	Z2	X3	Y3	Z3	X4	Y4	Z4	X5	Y5	Z5	X6	Y6	Z6	X7	Y7	Z7	X8	Y8	Z8	X9	Y9	Z9	X10	Y10	Z10	X11	Y11	Z11	X12	Y12	Z12	X13	Y13	Z13	X14	Y14	Z14	X15	Y15	Z15	X16	Y16	Z16	X17	Y17	Z17	X18	Y18	Z18	X19	Y19	Z19	X20	Y20	Z20	X21	Y21	Z21	X22	Y22	Z22	X23	Y23	Z23	X24	Y24	Z24	X25	Y25	Z25	X26	Y26	Z26	X27	Y27	Z27	X28	Y28	Z28	X29	Y29	Z29	X30	Y30	Z30	X31	Y31	Z31	X32	Y32	Z32	X33	Y33	Z33	

1688	11.24666666666667	2267.72330398759	901.801294908468	902.7049923158745	1890.05458160804	612.0109506911482	951.1979146165281	1888.195325834484	573.2299029153633	910.3285848334783	1927.159783701228	583.0355499269608	950.1996488999712	2221.522819655196	976.7099413117338	850.9804102369106	1817.360066957947	412.8230063974704	1002.657145160558	1809.42936951815	441.5294788664727	904.4733655157811	2098.150295465876	941.820487603101	936.1367832486706	1986.044791499603	501.3027632051	893.5770922277369	1995.583560518266	545.3294582655153	917.8477992579159	2064.215952750219	491.2028196139638	874.5311008100742	2078.261080989618	536.155930558771	900.0224195905957	2273.027257507339	547.0969026586102	820.6099514265592	2213.19390111494	526.8354164442351	857.0914374431434	2230.076042122354	647.8641951501122	810.7324032172473	2172.748146032042	628.6313873797151	843.5114720857142	2247.191294971337	909.433248809264	1089.83211710985	-153154698.42598	-426640928.6159791	-1358732761.206098	2057.480594022853	33.12226525497567	1011.507539390503	2085.457224348561	48.47771324943086	1054.862025453932	2069.445321614406	77.7127374694503	1011.805515435697	2189.47992470452	961.3897308323142	1130.58767113391	2274.9353579601	45.45585855440067	995.7718622275497	2234.52990235776	42.17065007708329	1090.545752040599	2089.765660023766	947.037556077512	1020.121036643832	2164.994962918892	154.1301224521596	1074.500037941386	2127.885933599249	177.4916410362843	1041.862360688308	2188.101062963719	228.9960502073128	1098.060564833473	2153.815637448837	250.8327291434847	1062.356063019696	2256.286797298607	546.462874104408	1136.350905284276	2207.303038533949	529.7987188825472	1083.875173078621	2204.520413859486	643.4952023796603	1151.620176073361	2155.02845790492	624.8390025969616	1105.424456902209	
1689	11.25333333333333	2265.351939301757	901.6240622033157	903.300241596986	1901.15730135756	604.0460250448064	946.5108465537369	1902.424208846899	564.4346245817515	906.7440463853176	1939.789180912399	577.1623443085468	946.9584413132629	2217.296467471088	975.86962099933	850.9474941716911	1839.105543358939	402.1284617998008	1000.59890812581	1831.641039350093	428.5100956515219	901.673312064017	2095.742080026329	941.5382398413417	937.1005514823195	2003.462285611524	496.5574092118638	891.7439511909538	2011.317639961226	541.22365296973	915.2595213439741	2081.938562038675	488.9676461500265	873.0637672207854	2094.225384974267	534.7865340889273	897.768368837479	2286.424912616948	552.6175379928858	819.8545071859736	2227.766540506016	528.9463235501051	856.227754654691	2238.018705961094	650.8627370958825	810.3579222805229	2181.707397828626	628.3525002960357	842.8825412443965	2245.159507724002	908.3561324602689	1090.772231994968	-153552483.8840455	-427746815.500501	-1362258121.646816	2026.99449489689	34.36324994167451	1012.055456779145	2054.992555643415	49.48170829537828	1055.504165042758	2038.984298229954	78.93230001786677	1012.62679680885	2186.707683953544	960.5524308626044	1131.574235203366	2244.204849881631	46.31497957810353	996.4314469870869	2203.987983709138	42.60220559949497	1090.984575014887	2087.867574781796	946.6551805180649	1020.931269475139	2138.124080673607	155.046946034132	1075.423115997414	2101.673467438634	179.9526264185312	1043.196102581562	2164.631884188099	228.8071620522232	1098.883782801709	2130.822531116562	252.1006157430645	1063.624421356961	2244.388989858192	542.6305161157685	1136.87170371975	2194.741245577025	527.6501718366775	1084.46407678688	2195.923141670587	641.2422665304139	1152.163475581069	2145.843339123437	624.3962209298146	1105.888008729958	
1690	11.26	2263.26502215311	902.4491340790404	903.6333252456038	1911.311999785892	594.3899093575493	942.2655545551644	1915.896017484584	554.3047596890551	903.5032121092424	1951.473376535914	569.9380393581347	943.9662989042088	2213.169588818061	976.0499545323134	850.9515308985538	1861.448586715135	389.814146258283	998.4514402119916	1854.214054970037	414.2222639931256	898.9819355658495	2093.699939217038	942.0413215302783	938.3271698340362	2020.401714589582	491.3650727735389	890.0417388037655	2026.187333901085	536.6162175727119	912.8293489246585	2099.135338326331	486.9454753687714	871.7493121078884	2109.261559399014	533.5867957079361	895.7392206895545	2299.439658528718	559.7633333373896	819.2566196029975	2242.180914027898	532.8025341689024	855.6489784790135	2245.700383959351	655.2160467766399	810.0313360738143	2190.619314587193	629.5463959208765	842.4363923074447	2243.678741125291	907.8585799232742	1091.538021352234	-153950957.4754798	-428854611.7610397	-1365789574.729703	1996.408670095264	36.0152040344088	1012.702178095349	2024.452819143358	50.65391194376917	1056.304088763496	2008.522902086928	80.55075765055335	1013.707062026754	2184.745019835192	960.5740210431561	1132.465753732636	2213.46553537902	46.95080902363673	997.2048315661265	2173.408828127112	42.6856799581499	1091.489130087169	2086.477779513548	946.8941424511976	1022.090917903625	2110.703659667814	156.3147724495775	1076.552161652091	2074.979242102401	182.5886763532012	1044.615481901518	2140.238106789802	228.9304949488676	1099.843185810666	2106.988052691307	253.510558278111	1064.924787696938	2231.557308593342	539.3086662861855	1137.392207624083	2181.000334467211	526.1422489005944	1085.351076402879	2186.898102803149	639.6090469813677	1152.717255164524	2136.054007156685	624.7629389994718	1106.574023285129	
1691	11.26666666666667	2261.550892465918	904.2054051849284	903.7718800974914	1920.77513460665	583.0349797686011	938.5659427595991	1928.795513320973	542.9094638387601	900.6364919679736	1962.414146315083	561.3305886318182	941.2901740990822	2209.333517160542	977.170595159251	851.0407660236788	1884.459617751786	376.0958143399143	996.1921591804769	1877.204539611799	398.9428169235877	896.3734432819368	2092.077352726514	943.2641661497751	939.8026877028816	2036.90700340539	485.7385695568841	888.4832743027921	2040.277103746778	531.4620152691043	910.6099985904103	2115.781454386455	485.0883303901679	870.5868715586754	2123.387315678249	532.440123828932	893.9724137121721	2311.929387641914	568.3417726395487	818.8244924617748	2256.234145350109	538.2612684996587	855.309247861405	2253.08180867583	660.7952211066855	809.7622443119709	2199.397379054946	632.1336980482627	842.1462743672627	2242.774837439502	907.8735570204686	1092.148425339906	-154350119.7949414	-429964319.0444933	-1369327125.714959	1965.769486349603	38.28722802726373	1013.438216352213	1993.914714376115	52.1996421093226	1057.227389110167	1978.171119924315	82.7600809407368	1014.989335871189	2183.772882324398	961.3525203502206	1133.257322032886	2182.738816439704	47.29092308097776	997.9754070223473	2142.798531779358	42.48623671301758	1091.994054309085	2085.627359803184	947.7141685068162	1023.580993517282	2082.899070762255	158.0689381951947	1077.770357522548	2047.9413445288	185.5448090976521	1046.007438060256	2115.095014557671	229.5515708922123	1100.843652836723	2082.468952313754	255.2519747040315	1066.154887522371	2217.961328487444	536.6755297411432	1137.885672466353	2166.322560521261	525.4591617731114	1086.457716741079	2177.547224523589	638.6930540001541	1153.272955148763	2125.821299303944	626.0231984094863	1107.438681662891	
